<?xml version="1.0" encoding="UTF-8"?>
<svg xmlns="http://www.w3.org/2000/svg" viewBox="0 0 500 500">
  <defs>
    <style>
      text {
        text-anchor: middle;
        alignment-baseline: middle;
        font-size: 150%;
        font-family: system-ui, sans-serif;
      }
      rect {
        width: 100px;
        height: 100px;
      }
    </style>
  </defs>
  <line x1="0" y1="0" x2="500" y2="0" stroke="#000" />
  <line x1="0" y1="100" x2="500" y2="100" stroke="#000" />
  <line x1="0" y1="200" x2="500" y2="200" stroke="#000" />
  <line x1="0" y1="300" x2="500" y2="300" stroke="#000" />
  <line x1="0" y1="400" x2="500" y2="400" stroke="#000" />
  <line x1="0" y1="500" x2="500" y2="500" stroke="#000" />

  <line y1="0" x1="0" y2="500" x2="0" stroke="#000" />
  <line y1="0" x1="100" y2="500" x2="100" stroke="#000" />
  <line y1="0" x1="200" y2="500" x2="200" stroke="#000" />
  <line y1="0" x1="300" y2="500" x2="300" stroke="#000" />
  <line y1="0" x1="400" y2="500" x2="400" stroke="#000" />
  <line y1="0" x1="500" y2="500" x2="500" stroke="#000" />

  <path d="M250,0L300,50 300,100 200,100 200,50" fill="#0a0a"/>
  <path d="M500,250L450,300 400,300 400,200 450,200" fill="#0a0a"/>
  <path d="M250,500L300,450 300,400 200,400 200,450" fill="#0a0a"/>
  <path d="M0,250L50,300 100,300 100,200 50,200" fill="#0a0a"/>

  <path d="M300,100L350,100 400,150 400,200 300,200" fill="#a005"/>
  <path d="M300,400L350,400 400,350 400,300 300,300" fill="#a005"/>
  <path d="M200,400L150,400 100,350 100,300 200,300" fill="#a005"/>
  <path d="M200,100L150,100 100,150 100,200 200,200" fill="#a005"/>

  <path d="M300,100L300,50 350,100" fill="#00a5"/>
  <path d="M400,200L400,150 450,200" fill="#00a5"/>
  <path d="M400,300L400,350 450,300" fill="#00a5"/>
  <path d="M300,400L300,450 350,400" fill="#00a5"/>
  <path d="M200,400L200,450 150,400" fill="#00a5"/>
  <path d="M100,300L100,350 50,300" fill="#00a5"/>
  <path d="M100,200L100,150 50,200" fill="#00a5"/>
  <path d="M200,100L200,50 150,100" fill="#00a5"/>

  <rect x="200" y="200" fill="#aa0a" />
  <rect x="200" y="100" fill="#0aaa" />
  <rect x="300" y="200" fill="#0aaa" />
  <rect x="200" y="300" fill="#0aaa" />
  <rect x="100" y="200" fill="#0aaa" />

  <path d="M250,0L500,250 250,500 0,250Z" fill="none" stroke="blue" />

  <text x="250" y="250">0</text>
  <text x="250" y="150">1</text>
  <text x="350" y="250">1</text>
  <text x="250" y="350">1</text>
  <text x="150" y="250">1</text>

  <text x="250" y="60">A</text>
  <text x="440" y="250">B</text>
  <text x="250" y="440">C</text>
  <text x="60" y="250">D</text>
  <text x="345" y="155">K</text>
  <text x="345" y="345">L</text>
  <text x="155" y="345">M</text>
  <text x="155" y="155">N</text>
  <text x="315" y="85">a</text>
  <text x="415" y="185">a</text>
  <text x="415" y="315">b</text>
  <text x="315" y="415">b</text>
  <text x="185" y="415">c</text>
  <text x="85" y="315">c</text>
  <text x="85" y="185">d</text>
  <text x="185" y="85">d</text>
</svg>
